<svg width="16" height="16" viewBox="0 0 16 16" fill="none" xmlns="http://www.w3.org/2000/svg">
<g clip-path="url(#clip0_668_2216)">
<path d="M8.1665 3.04199C5.0415 3.04199 2.37275 4.98574 1.2915 7.72949C2.37275 10.4732 5.0415 12.417 8.1665 12.417C11.2915 12.417 13.9603 10.4732 15.0415 7.72949C13.9603 4.98574 11.2915 3.04199 8.1665 3.04199ZM8.1665 10.8545C6.4415 10.8545 5.0415 9.45449 5.0415 7.72949C5.0415 6.00449 6.4415 4.60449 8.1665 4.60449C9.8915 4.60449 11.2915 6.00449 11.2915 7.72949C11.2915 9.45449 9.8915 10.8545 8.1665 10.8545ZM8.1665 5.85449C7.129 5.85449 6.2915 6.69199 6.2915 7.72949C6.2915 8.76699 7.129 9.60449 8.1665 9.60449C9.204 9.60449 10.0415 8.76699 10.0415 7.72949C10.0415 6.69199 9.204 5.85449 8.1665 5.85449Z" fill="#323232"/>
</g>
<defs>
<clipPath id="clip0_668_2216">
<rect width="15" height="15" fill="white" transform="translate(0.666504 0.229492)"/>
</clipPath>
</defs>
</svg>
