<svg width="80" height="80" viewBox="0 0 80 80" fill="none" xmlns="http://www.w3.org/2000/svg">
<path d="M0 40C0 17.9086 17.9086 0 40 0C62.0914 0 80 17.9086 80 40C80 62.0914 62.0914 80 40 80C17.9086 80 0 62.0914 0 40Z" fill="white"/>
<path d="M49.0333 52.9333L36.1 40L49.0333 27.0667C50.3333 25.7667 50.3333 23.6667 49.0333 22.3667C47.7333 21.0667 45.6333 21.0667 44.3333 22.3667L29.0333 37.6667C27.7333 38.9667 27.7333 41.0667 29.0333 42.3667L44.3333 57.6667C45.6333 58.9667 47.7333 58.9667 49.0333 57.6667C50.3 56.3667 50.3333 54.2333 49.0333 52.9333Z" fill="#A000A2"/>
</svg>
