<svg width="80" height="80" viewBox="0 0 80 80" fill="none" xmlns="http://www.w3.org/2000/svg">
<path d="M0 40C0 17.9086 17.9086 0 40 0C62.0914 0 80 17.9086 80 40C80 62.0914 62.0914 80 40 80C17.9086 80 0 62.0914 0 40Z" fill="white"/>
<path d="M30.9667 52.9333L43.9 40L30.9667 27.0667C29.6667 25.7667 29.6667 23.6667 30.9667 22.3667C32.2667 21.0667 34.3667 21.0667 35.6667 22.3667L50.9667 37.6667C52.2667 38.9667 52.2667 41.0667 50.9667 42.3667L35.6667 57.6667C34.3667 58.9667 32.2667 58.9667 30.9667 57.6667C29.7 56.3667 29.6667 54.2333 30.9667 52.9333Z" fill="#A000A2"/>
</svg>
